<svg id="visual" viewBox="0 0 900 675" width="900" height="675" xmlns="http://www.w3.org/2000/svg" xmlns:xlink="http://www.w3.org/1999/xlink" version="1.1"><path d="M0 480L21.5 475.3C43 470.7 86 461.3 128.8 458.3C171.7 455.3 214.3 458.7 257.2 450.8C300 443 343 424 385.8 414C428.7 404 471.3 403 514.2 401.2C557 399.3 600 396.7 642.8 401.2C685.7 405.7 728.3 417.3 771.2 427.3C814 437.3 857 445.7 878.5 449.8L900 454L900 676L878.5 676C857 676 814 676 771.2 676C728.3 676 685.7 676 642.8 676C600 676 557 676 514.2 676C471.3 676 428.7 676 385.8 676C343 676 300 676 257.2 676C214.3 676 171.7 676 128.8 676C86 676 43 676 21.5 676L0 676Z" fill="#01acf4"></path><path d="M0 445L21.5 449C43 453 86 461 128.8 462.5C171.7 464 214.3 459 257.2 461.2C300 463.3 343 472.7 385.8 486.2C428.7 499.7 471.3 517.3 514.2 522.3C557 527.3 600 519.7 642.8 506.5C685.7 493.3 728.3 474.7 771.2 466C814 457.3 857 458.7 878.5 459.3L900 460L900 676L878.5 676C857 676 814 676 771.2 676C728.3 676 685.7 676 642.8 676C600 676 557 676 514.2 676C471.3 676 428.7 676 385.8 676C343 676 300 676 257.2 676C214.3 676 171.7 676 128.8 676C86 676 43 676 21.5 676L0 676Z" fill="#1d88c4"></path><path d="M0 500L21.5 505C43 510 86 520 128.8 518.5C171.7 517 214.3 504 257.2 506.2C300 508.3 343 525.7 385.8 537.5C428.7 549.3 471.3 555.7 514.2 560.5C557 565.3 600 568.7 642.8 562.5C685.7 556.3 728.3 540.7 771.2 533.8C814 527 857 529 878.5 530L900 531L900 676L878.5 676C857 676 814 676 771.2 676C728.3 676 685.7 676 642.8 676C600 676 557 676 514.2 676C471.3 676 428.7 676 385.8 676C343 676 300 676 257.2 676C214.3 676 171.7 676 128.8 676C86 676 43 676 21.5 676L0 676Z" fill="#206696"></path><path d="M0 587L21.5 582.3C43 577.7 86 568.3 128.8 567.8C171.7 567.3 214.3 575.7 257.2 576.8C300 578 343 572 385.8 576.5C428.7 581 471.3 596 514.2 596.5C557 597 600 583 642.8 578C685.7 573 728.3 577 771.2 582C814 587 857 593 878.5 596L900 599L900 676L878.5 676C857 676 814 676 771.2 676C728.3 676 685.7 676 642.8 676C600 676 557 676 514.2 676C471.3 676 428.7 676 385.8 676C343 676 300 676 257.2 676C214.3 676 171.7 676 128.8 676C86 676 43 676 21.5 676L0 676Z" fill="#1b466a"></path><path d="M0 620L21.5 617.7C43 615.3 86 610.7 128.8 613C171.7 615.3 214.3 624.7 257.2 626.7C300 628.7 343 623.3 385.8 617.8C428.7 612.3 471.3 606.7 514.2 607.5C557 608.3 600 615.7 642.8 622.8C685.7 630 728.3 637 771.2 633.2C814 629.3 857 614.7 878.5 607.3L900 600L900 676L878.5 676C857 676 814 676 771.2 676C728.3 676 685.7 676 642.8 676C600 676 557 676 514.2 676C471.3 676 428.7 676 385.8 676C343 676 300 676 257.2 676C214.3 676 171.7 676 128.8 676C86 676 43 676 21.5 676L0 676Z" fill="#112941"></path></svg>